<?xml version="1.0" encoding="UTF-8"?>
<svg version="1.1" xmlns="http://www.w3.org/2000/svg" role="img" class="iconify iconify--logos" width="31.88" height="32">
<path d="M0 0 C165 0 330 0 500 0 C500 165 500 330 500 500 C335 500 170 500 0 500 C0 335 0 170 0 0 Z " fill="#FEFEFF" transform="translate(0,0)"/>
<path d="M0 0 C4.41250013 2.82290381 8.11927607 6.39606684 11.8515625 10.05078125 C13.99555101 12.10989045 16.0913826 13.90321388 18.515625 15.609375 C19.04929688 15.04089844 19.58296875 14.47242188 20.1328125 13.88671875 C28.56338964 5.14984037 36.9676636 -2.57237992 49.578125 -2.890625 C58.48565097 -2.88953245 65.24740641 -0.14085589 71.9296875 5.73046875 C77.99636338 12.09496327 80.58101927 17.67175249 80.953125 26.421875 C80.56647164 38.24454517 75.78525247 45.45716618 67.515625 53.609375 C67.185625 53.939375 66.855625 54.269375 66.515625 54.609375 C65.17295087 54.69569374 63.82588178 54.71643973 62.48046875 54.70703125 C61.67158203 54.70380859 60.86269531 54.70058594 60.02929688 54.69726562 C59.17916016 54.68888672 58.32902344 54.68050781 57.453125 54.671875 C56.59912109 54.66736328 55.74511719 54.66285156 54.86523438 54.65820312 C52.74866837 54.64637873 50.63213815 54.62844269 48.515625 54.609375 C47.195625 52.299375 45.875625 49.989375 44.515625 47.609375 C43.855625 47.609375 43.195625 47.609375 42.515625 47.609375 C42.08479614 48.46486938 42.08479614 48.46486938 41.64526367 49.33764648 C40.34133588 51.91266085 39.02247841 54.47973254 37.703125 57.046875 C37.25130859 57.94470703 36.79949219 58.84253906 36.33398438 59.76757812 C35.89248047 60.62158203 35.45097656 61.47558594 34.99609375 62.35546875 C34.59285889 63.14622803 34.18962402 63.9369873 33.77416992 64.75170898 C32.515625 66.609375 32.515625 66.609375 29.515625 67.609375 C28.195625 65.299375 26.875625 62.989375 25.515625 60.609375 C22.2171111 61.33205735 22.2171111 61.33205735 20.828125 64.671875 C20.395 65.64125 19.961875 66.610625 19.515625 67.609375 C16.00678785 66.20454537 14.77751904 64.86215373 13.15625 61.4765625 C12.56650391 60.26806641 12.56650391 60.26806641 11.96484375 59.03515625 C11.56910156 58.19339844 11.17335937 57.35164063 10.765625 56.484375 C10.35441406 55.63488281 9.94320312 54.78539062 9.51953125 53.91015625 C8.50721002 51.81488672 7.50650919 49.71484531 6.515625 47.609375 C5.855625 47.609375 5.195625 47.609375 4.515625 47.609375 C3.195625 49.919375 1.875625 52.229375 0.515625 54.609375 C-4.434375 54.609375 -9.384375 54.609375 -14.484375 54.609375 C-14.484375 53.289375 -14.484375 51.969375 -14.484375 50.609375 C-10.194375 50.609375 -5.904375 50.609375 -1.484375 50.609375 C-0.824375 48.629375 -0.164375 46.649375 0.515625 44.609375 C1.73763519 42.19211396 3.12002281 39.93537866 4.515625 37.609375 C7.515625 38.609375 7.515625 38.609375 8.74243164 40.45117188 C9.13293701 41.23556641 9.52344238 42.01996094 9.92578125 42.828125 C10.35826172 43.67761719 10.79074219 44.52710938 11.23632812 45.40234375 C11.67912109 46.29566406 12.12191406 47.18898437 12.578125 48.109375 C13.45963926 49.87240353 14.34611447 51.63296308 15.23828125 53.390625 C15.62765869 54.17501953 16.01703613 54.95941406 16.41821289 55.76757812 C17.38678406 57.76972941 17.38678406 57.76972941 19.515625 58.609375 C19.825 57.660625 20.134375 56.711875 20.453125 55.734375 C21.515625 52.609375 21.515625 52.609375 22.515625 50.609375 C23.835625 50.609375 25.155625 50.609375 26.515625 50.609375 C29.515625 56.359375 29.515625 56.359375 29.515625 58.609375 C33.70490127 55.03503837 35.810543 50.68157189 38.265625 45.859375 C38.67683594 45.06660156 39.08804688 44.27382812 39.51171875 43.45703125 C40.51980734 41.51118584 41.52082428 39.56203762 42.515625 37.609375 C45.515625 38.609375 45.515625 38.609375 46.90234375 40.82421875 C47.54623047 42.17193359 47.54623047 42.17193359 48.203125 43.546875 C48.64011719 44.44277344 49.07710938 45.33867187 49.52734375 46.26171875 C50.515625 48.609375 50.515625 48.609375 50.515625 50.609375 C59.2547576 51.0230031 59.2547576 51.0230031 67.12109375 47.8203125 C73.51770474 40.83564534 76.22712938 33.86457738 75.92578125 24.41796875 C74.87001405 17.18847719 71.18428919 11.18764959 65.3828125 6.79296875 C58.48328939 2.41942167 51.60343857 1.66689266 43.515625 2.609375 C34.80358821 4.93465172 28.06243489 12.83403501 22.140625 19.234375 C21.274375 20.018125 20.408125 20.801875 19.515625 21.609375 C16.16473872 21.33241823 14.61516663 20.02731042 12.4140625 17.58984375 C11.8466333 16.98092285 11.2792041 16.37200195 10.69458008 15.74462891 C10.0992749 15.10187012 9.50396973 14.45911133 8.890625 13.796875 C1.88957414 6.55903857 -3.69074462 2.65644906 -13.984375 2.109375 C-21.69780156 2.45800445 -28.03676335 4.64081434 -33.421875 10.296875 C-37.8215921 15.8899116 -40.19101636 22.31932159 -39.8203125 29.51953125 C-37.55548575 43.60886043 -25.35363286 52.87644441 -15.6544857 62.36160278 C-12.65773635 65.29632417 -9.67719194 68.24746968 -6.69335938 71.1953125 C-2.9246366 74.91616803 0.84856282 78.63217904 4.63696289 82.33300781 C7.72742407 85.35287314 10.80272188 88.38748291 13.86873436 91.43215942 C15.02943531 92.57937097 16.19550095 93.72118351 17.3672123 94.85714722 C31.14529626 108.22574416 31.14529626 108.22574416 31.65058899 118.30029297 C31.44307432 125.27075825 28.78704913 130.36165685 23.8984375 135.21484375 C18.68985309 139.2051112 13.35787688 139.16860756 6.98046875 139.17578125 C-0.27065124 137.99042342 -4.07315413 134.22726498 -8.72290039 128.9230957 C-14.48708804 122.19648887 -14.48708804 122.19648887 -22.359375 118.76953125 C-26.01656413 118.87278543 -26.01656413 118.87278543 -29.5078125 119.3359375 C-32.57726196 119.61790792 -33.68018681 119.50300632 -36.171875 117.796875 C-36.935 117.075 -37.698125 116.353125 -38.484375 115.609375 C-39.0825 115.09375 -39.680625 114.578125 -40.296875 114.046875 C-43.14091432 110.60409056 -42.81943829 106.34697289 -42.7578125 102.11328125 C-42.27445007 97.68706246 -40.29936725 95.15635026 -36.9765625 92.32421875 C-32.86967505 89.50670294 -29.49253496 89.17144315 -24.62890625 90 C-20.32714229 91.22235916 -17.52675687 93.42800888 -14.609375 96.734375 C-12.09779385 103.15286016 -13.17405987 109.28592282 -15.484375 115.609375 C-12.88431424 118.23846925 -10.27863543 120.8619247 -7.671875 123.484375 C-6.93388672 124.23074219 -6.19589844 124.97710937 -5.43554688 125.74609375 C-4.36723633 126.81923828 -4.36723633 126.81923828 -3.27734375 127.9140625 C-2.6227417 128.57390137 -1.96813965 129.23374023 -1.29370117 129.91357422 C3.20375798 134.12884223 6.5822842 134.0362897 12.49609375 133.921875 C16.94941585 133.46098785 19.026381 132.43046589 22.515625 129.609375 C25.87784337 125.16257006 25.89576824 120.77072886 26.01171875 115.390625 C24.91119284 109.22074748 20.09069033 104.91567595 15.74072266 100.70263672 C15.17431564 100.14557541 14.60790863 99.5885141 14.02433777 99.01457214 C12.80150899 97.81264235 11.57650234 96.61292502 10.3495369 95.41521835 C8.40060082 93.5106378 6.45996356 91.59795978 4.52157593 89.68264771 C-0.98793114 84.24001295 -6.50532552 78.80559609 -12.04394531 73.39257812 C-15.43982434 70.07254888 -18.82043883 66.7375947 -22.19212723 63.39300919 C-23.47104111 62.13006856 -24.75545857 60.87267338 -26.04569626 59.62130356 C-34.97782341 50.95354392 -44.3873065 41.38801678 -44.796875 28.109375 C-44.67108138 19.47993283 -41.6860393 11.62342954 -35.64453125 5.40234375 C-25.40823607 -3.09396635 -12.34338969 -5.64035688 0 0 Z " fill="#6877FF" transform="translate(235.484375,183.390625)"/>
<path d="M0 0 C2.87029869 1.79393668 4.49131638 2.98263276 6 6 C6.68128376 12.81283762 6.68128376 12.81283762 4.953125 15.82421875 C2.04275856 19.35945798 0.28356236 20.85189665 -4.25 21.375 C-9.19272958 20.88072704 -10.53828301 19.46171699 -14 16 C-15.60086627 12.79826746 -15.49917089 9.47422941 -15 6 C-11.03690229 -0.20885308 -7.02452124 -0.90991208 0 0 Z " fill="#FCFDFF" transform="translate(212,278)"/>
</svg>
